<svg width="22" height="20" viewBox="0 0 22 20" fill="none" xmlns="http://www.w3.org/2000/svg">
<path d="M10.7315 11.75V0.75M10.7315 11.75C9.0731 11.75 7.72876 13.1854 7.72876 14.375C7.72876 16.125 9.0731 18.75 10.7315 18.75C12.3897 18.75 13.7341 16.125 13.7341 14.375C13.7341 13.1854 12.3897 11.75 10.7315 11.75Z" stroke="white" stroke-width="1.5" stroke-linecap="round"/>
<path d="M3.72679 7.77866L3.72679 18.7503M2.43453 0.879755L1.65185 0.957836C1.08064 1.01482 0.674342 1.53915 0.762203 2.10594L1.43118 6.42148C1.5445 7.15255 2.17438 7.76094 2.91482 7.76094H4.53878C5.27922 7.76094 5.90909 7.15255 6.02242 6.42148L6.69139 2.10594C6.77925 1.53915 6.37296 1.01482 5.80174 0.957836L5.02175 0.879921C4.16149 0.793988 3.2948 0.793932 2.43453 0.879755Z" stroke="white" stroke-width="1.5" stroke-linecap="round"/>
<path d="M16.7449 11.5677L16.7449 0.775391C17.9034 1.09537 19.8304 2.30213 20.1495 5.27787L20.7225 9.79186C20.8232 10.5845 20.6216 11.3756 19.8335 11.5111C19.1733 11.6246 18.1718 11.6616 16.7449 11.5677ZM16.7449 11.5677L16.7449 18.7495" stroke="white" stroke-width="1.5" stroke-linecap="round" stroke-linejoin="round"/>
</svg>
