<svg width="24" height="24" viewBox="0 0 24 24" fill="none" xmlns="http://www.w3.org/2000/svg">
  <path d="M7 4.5C7 3.67157 7.67157 3 8.5 3H14C14.8284 3 15.5 3.67157 15.5 4.5V10H7V4.5Z" fill="currentColor"/>
  <path d="M6 11.5C6 10.6716 6.67157 10 7.5 10H16C16.8284 10 17.5 10.6716 17.5 11.5V14C17.5 14.8284 16.8284 15.5 16 15.5H7.5C6.67157 15.5 6 14.8284 6 14V11.5Z" fill="currentColor"/>
  <path d="M5 8.5C5 7.94772 5.44772 7.5 6 7.5H7V17H6C5.44772 17 5 16.5523 5 16V8.5Z" fill="currentColor"/>
  <path d="M17 7.5H18C18.5523 7.5 19 7.94772 19 8.5V16C19 16.5523 18.5523 17 18 17H17V7.5Z" fill="currentColor"/>
  <path d="M8 16H9.5V20.25C9.5 20.6642 9.16421 21 8.75 21C8.33579 21 8 20.6642 8 20.25V16Z" fill="currentColor"/>
  <path d="M14 16H15.5V20.25C15.5 20.6642 15.1642 21 14.75 21C14.3358 21 14 20.6642 14 20.25V16Z" fill="currentColor"/>
</svg>
