<svg width="14" height="22" viewBox="0 0 14 22" fill="none" xmlns="http://www.w3.org/2000/svg">
<path d="M9.7522 3.75C9.7522 5.40685 7.99399 7.25 6.7522 7.25C5.51041 7.25 3.7522 5.40685 3.7522 3.75C3.7522 2.09315 5.09534 0.75 6.7522 0.75C8.40905 0.75 9.7522 2.09315 9.7522 3.75Z" stroke="white" stroke-width="1.5"/>
<path d="M10.7937 7.75C12.3167 9.08531 13.3035 11.3469 12.4173 13.4552C12.2264 13.9094 11.7883 14.2039 11.3036 14.2039C10.8107 14.2039 10.0011 14.046 9.84385 14.6874L8.74659 19.1623C8.5178 20.0954 7.69552 20.75 6.75219 20.75C5.80885 20.75 4.98657 20.0954 4.75778 19.1623L3.66052 14.6874C3.50323 14.046 2.69369 14.2039 2.20082 14.2039C1.7161 14.2039 1.27802 13.9094 1.08708 13.4552C0.200861 11.3469 1.18778 9.08531 2.71077 7.75" stroke="white" stroke-width="1.5" stroke-linecap="round"/>
</svg>
