<svg width="19" height="17" viewBox="0 0 19 17" fill="none" xmlns="http://www.w3.org/2000/svg">
<path d="M13.648 5.75922C13.6542 5.75919 13.6604 5.75917 13.6667 5.75917C15.7377 5.75917 17.4167 7.44118 17.4167 9.51605C17.4167 11.4498 15.9583 13.0424 14.0833 13.25M13.648 5.75922C13.6603 5.62172 13.6667 5.48247 13.6667 5.34174C13.6667 2.80579 11.6146 0.75 9.08333 0.75C6.68603 0.75 4.71861 2.59389 4.51702 4.94326M13.648 5.75922C13.5628 6.70632 13.1905 7.5705 12.619 8.26376M4.51702 4.94326C2.40332 5.14477 0.75 6.92827 0.75 9.09862C0.75 11.1181 2.18147 12.8027 4.08333 13.1894M4.51702 4.94326C4.64855 4.93072 4.78186 4.92431 4.91667 4.92431C5.85485 4.92431 6.72062 5.23495 7.41707 5.75917" stroke="#677487" stroke-width="1.5" stroke-linecap="round" stroke-linejoin="round"/>
<path d="M9.08333 9.08331L9.08333 15.75M9.08333 9.08331C8.49981 9.08331 7.40961 10.7452 7 11.1666M9.08333 9.08331C9.66686 9.08331 10.7571 10.7452 11.1667 11.1666" stroke="#677487" stroke-width="1.5" stroke-linecap="round" stroke-linejoin="round"/>
</svg>
